<?xml version="1.0" encoding="UTF-8"?><svg id="a" xmlns="http://www.w3.org/2000/svg" viewBox="0 0 578.44 457.74"><defs><style>.b{fill:none;stroke:#ac7a64;stroke-miterlimit:10;}.c{letter-spacing:-.01em;}.d{fill:#a69f94;font-family:UtileNarrow-Semibold, Utile Narrow;font-size:147.93px;font-weight:700;}.e{letter-spacing:0em;}</style></defs><text class="d" transform="translate(207.78 240.13)"><tspan class="c" x="0" y="0">J</tspan><tspan class="e" x="49.85" y="0">W</tspan></text><g><path class="b" d="M402.54,117.42c-7.65,2.79-12.49,7.61-14.52,9.68-5.65,5.75-8.38,11.79-9.68,15.32-.09,94.26-.18,188.52-.27,282.77,.39,3.28,1.7,10.63,7.26,17.74,1.46,1.86,5.86,7.11,13.44,10.48,4.92,2.19,9.17,2.69,23.39,2.69,6.85,0,15.39-.12,25.27-.54,3.1-.86,9.84-3.18,15.86-9.41,5.23-5.42,7.42-11.21,8.33-14.25V144.03c-.82-3.45-3.06-10.7-9.41-17.2-1.2-1.23-5.73-5.69-13.17-8.6-3.08-1.2-6.26-1.99-24.5-2.19-16.68-.19-19.33,.41-22,1.38Z"/><path class="b" d="M408.27,138.07c-1.69,.63-3.71,1.68-5.44,3.52,0,0-2.18,2.32-3.2,5.76-2.21,7.44-.24,246.9,0,275.94,.15,1.32,.6,3.79,2.24,6.39,1.64,2.6,3.67,4.09,4.8,4.8h35.49c1.89-.34,4.29-1.09,6.39-2.88,0,0,2.85-2.42,4.16-6.71,2.72-8.92,.28-247.12,0-274.02-.03-1.33-.28-4.65-2.56-7.99-2.12-3.11-4.86-4.56-6.08-5.12-11.94,.11-23.87,.21-35.81,.32Z"/><path class="b" d="M471.96,184.18c9.34,.12,18.67,.25,28.01,.37,1.57,.91,3.52,2.22,5.5,4.09,1.88,1.77,3.26,3.54,4.24,4.99,.4,57.81,.8,115.61,1.2,173.42-.29,1.24-1.12,4.11-3.65,6.69-2.31,2.36-4.86,3.29-6.09,3.65h-29.21V184.18Z"/><path class="b" d="M471.8,164.44c10.09,.19,21.68,.22,31.77,.41,3.1,.63,8.71,2.19,14.29,6.51,7.21,5.58,10.21,12.52,11.32,15.56,.55,60.75,1.09,121.5,1.64,182.25-.38,3.06-1.6,9.47-6.42,15.65-7,8.99-16.68,11.2-19.37,11.72-10.95,.21-21.91,.42-32.86,.63"/><path class="b" d="M529.91,257.29l18.4,.4c.99,.26,3.76,1.14,5.93,3.82,1.73,2.13,2.22,4.34,2.39,5.39l.47,33.81c-.33,1.44-1.13,4.05-3.22,6.62-1.68,2.07-3.52,3.3-4.73,3.97-6.25,.1-12.5,.2-18.76,.3-.16-18.11-.33-36.22-.49-54.33Z"/><path class="b" d="M530.08,237.39c6.91,.35,15.28-.23,22.19,.13,3.65,1.41,8.85,3.9,14.17,8.25,5.42,4.43,8.93,9.12,11.04,12.45,.15,16.77,.31,33.54,.46,50.31-1.46,3.24-4.51,8.9-10.44,14.03-5.51,4.76-11.07,6.98-14.39,8.02l-22.5-.09"/></g><g><path class="b" d="M175.9,118.55c7.65,2.79,12.49,7.61,14.52,9.68,5.65,5.75,8.38,11.79,9.68,15.32,.09,94.26,.18,188.52,.27,282.77-.39,3.28-1.7,10.63-7.26,17.74-1.46,1.86-5.86,7.11-13.44,10.48-4.92,2.19-9.17,2.69-23.39,2.69-6.85,0-15.39-.12-25.27-.54-3.1-.86-9.84-3.18-15.86-9.41-5.23-5.42-7.42-11.21-8.33-14.25V145.16c.82-3.45,3.06-10.7,9.41-17.2,1.2-1.23,5.73-5.69,13.17-8.6,3.08-1.2,6.26-1.99,24.5-2.19,16.68-.19,19.33,.41,22,1.38Z"/><path class="b" d="M170.17,139.2c1.69,.63,3.71,1.68,5.44,3.52,0,0,2.18,2.32,3.2,5.76,2.21,7.44,.24,246.9,0,275.94-.15,1.32-.6,3.79-2.24,6.39-1.64,2.6-3.67,4.09-4.8,4.8h-35.49c-1.89-.34-4.29-1.09-6.39-2.88,0,0-2.85-2.42-4.16-6.71-2.72-8.92-.28-247.12,0-274.02,.03-1.33,.28-4.65,2.56-7.99,2.12-3.11,4.86-4.56,6.08-5.12,11.94,.11,23.87,.21,35.81,.32Z"/><path class="b" d="M106.49,185.31c-9.34,.12-18.67,.25-28.01,.37-1.57,.91-3.52,2.22-5.5,4.09-1.88,1.77-3.26,3.54-4.24,4.99-.4,57.81-.8,115.61-1.2,173.42,.29,1.24,1.12,4.11,3.65,6.69,2.31,2.36,4.86,3.29,6.09,3.65h29.21V185.31Z"/><path class="b" d="M106.64,165.57c-10.09,.19-21.68,.22-31.77,.41-3.1,.63-8.71,2.19-14.29,6.51-7.21,5.58-10.21,12.52-11.32,15.56-.55,60.75-1.09,121.5-1.64,182.25,.38,3.06,1.6,9.47,6.42,15.65,7,8.99,16.68,11.2,19.37,11.72,10.95,.21,21.91,.42,32.86,.63"/><path class="b" d="M48.53,258.42l-18.4,.4c-.99,.26-3.76,1.14-5.93,3.82-1.73,2.13-2.22,4.34-2.39,5.39l-.47,33.81c.33,1.44,1.13,4.05,3.22,6.62,1.68,2.07,3.52,3.3,4.73,3.97,6.25,.1,12.5,.2,18.76,.3,.16-18.11,.33-36.22,.49-54.33Z"/><path class="b" d="M48.37,238.53c-6.91,.35-15.28-.23-22.19,.13-3.65,1.41-8.85,3.9-14.17,8.25-5.42,4.43-8.93,9.12-11.04,12.45-.15,16.77-.31,33.54-.46,50.31,1.46,3.24,4.51,8.9,10.44,14.03,5.51,4.76,11.07,6.98,14.39,8.02l22.5-.09"/></g><rect class="b" x="204.89" y="250.94" width="169.77" height="24.7"/><rect class="b" x="204.15" y="322.16" width="169.77" height="24.7"/></svg>